<mxfile host="app.diagrams.net" modified="2024-03-06T17:20:33.760Z" agent="Mozilla/5.0 (Windows NT 10.0; Win64; x64) AppleWebKit/537.36 (KHTML, like Gecko) Chrome/122.0.0.0 Safari/537.36 Edg/122.0.0.0" etag="F6CFGWokA9PrZldkoP3e" version="24.0.2" type="device" pages="2">
  <diagram name="Stato, imprese e famiglie" id="929HH1W6ueiHEL5tD_4z">
    <mxGraphModel dx="695" dy="357" grid="1" gridSize="10" guides="1" tooltips="1" connect="1" arrows="1" fold="1" page="1" pageScale="1" pageWidth="827" pageHeight="1169" math="0" shadow="0">
      <root>
        <mxCell id="0" />
        <mxCell id="1" parent="0" />
        <mxCell id="RowwXZ44RrkYu5-V3QS_-3" style="edgeStyle=orthogonalEdgeStyle;rounded=0;orthogonalLoop=1;jettySize=auto;html=1;exitX=0;exitY=0.5;exitDx=0;exitDy=0;entryX=0.5;entryY=0;entryDx=0;entryDy=0;" parent="1" source="RowwXZ44RrkYu5-V3QS_-1" target="RowwXZ44RrkYu5-V3QS_-2" edge="1">
          <mxGeometry relative="1" as="geometry" />
        </mxCell>
        <mxCell id="RowwXZ44RrkYu5-V3QS_-5" style="edgeStyle=orthogonalEdgeStyle;rounded=0;orthogonalLoop=1;jettySize=auto;html=1;exitX=1;exitY=0.5;exitDx=0;exitDy=0;" parent="1" source="RowwXZ44RrkYu5-V3QS_-1" target="RowwXZ44RrkYu5-V3QS_-4" edge="1">
          <mxGeometry relative="1" as="geometry" />
        </mxCell>
        <mxCell id="RowwXZ44RrkYu5-V3QS_-1" value="Periodi economici" style="rounded=1;whiteSpace=wrap;html=1;" parent="1" vertex="1">
          <mxGeometry x="350" y="120" width="130" height="60" as="geometry" />
        </mxCell>
        <mxCell id="RowwXZ44RrkYu5-V3QS_-2" value="Espansione&lt;br&gt;(Andiamo in su fino ad una certa)" style="rounded=0;whiteSpace=wrap;html=1;" parent="1" vertex="1">
          <mxGeometry x="200" y="240" width="120" height="60" as="geometry" />
        </mxCell>
        <mxCell id="RowwXZ44RrkYu5-V3QS_-4" value="Recessione&lt;br&gt;(Accade un punto verso il quale cominciamo ad andare in giù)" style="rounded=0;whiteSpace=wrap;html=1;" parent="1" vertex="1">
          <mxGeometry x="510" y="230" width="130" height="80" as="geometry" />
        </mxCell>
        <mxCell id="RowwXZ44RrkYu5-V3QS_-8" value="Pressione fiscale&lt;br&gt;(Rapporto tra spese dei contribuenti e il reddito statale)" style="rounded=0;whiteSpace=wrap;html=1;" parent="1" vertex="1">
          <mxGeometry x="355" y="330" width="145" height="100" as="geometry" />
        </mxCell>
      </root>
    </mxGraphModel>
  </diagram>
  <diagram id="K6Tcss5FVgVVxfma-N-7" name="Mercato">
    <mxGraphModel dx="744" dy="382" grid="1" gridSize="10" guides="1" tooltips="1" connect="1" arrows="1" fold="1" page="1" pageScale="1" pageWidth="827" pageHeight="1169" math="0" shadow="0">
      <root>
        <mxCell id="0" />
        <mxCell id="1" parent="0" />
        <mxCell id="WxBqOeOehTViDiiqJvIH-8" style="edgeStyle=orthogonalEdgeStyle;rounded=0;orthogonalLoop=1;jettySize=auto;html=1;exitX=0.5;exitY=1;exitDx=0;exitDy=0;" edge="1" parent="1" source="WxBqOeOehTViDiiqJvIH-2" target="WxBqOeOehTViDiiqJvIH-5">
          <mxGeometry relative="1" as="geometry" />
        </mxCell>
        <mxCell id="WxBqOeOehTViDiiqJvIH-2" value="Mercato&lt;br&gt;(Insieme di tutte le transazioni svolte tra beni e offerte tra compratori e venditori)" style="rounded=1;whiteSpace=wrap;html=1;" vertex="1" parent="1">
          <mxGeometry x="688.5" y="40" width="151" height="70" as="geometry" />
        </mxCell>
        <mxCell id="WxBqOeOehTViDiiqJvIH-12" style="edgeStyle=orthogonalEdgeStyle;rounded=0;orthogonalLoop=1;jettySize=auto;html=1;exitX=0;exitY=0.5;exitDx=0;exitDy=0;" edge="1" parent="1" source="WxBqOeOehTViDiiqJvIH-5" target="WxBqOeOehTViDiiqJvIH-9">
          <mxGeometry relative="1" as="geometry" />
        </mxCell>
        <mxCell id="WxBqOeOehTViDiiqJvIH-13" style="edgeStyle=orthogonalEdgeStyle;rounded=0;orthogonalLoop=1;jettySize=auto;html=1;exitX=0.5;exitY=1;exitDx=0;exitDy=0;" edge="1" parent="1" source="WxBqOeOehTViDiiqJvIH-5" target="WxBqOeOehTViDiiqJvIH-10">
          <mxGeometry relative="1" as="geometry" />
        </mxCell>
        <mxCell id="WxBqOeOehTViDiiqJvIH-14" style="edgeStyle=orthogonalEdgeStyle;rounded=0;orthogonalLoop=1;jettySize=auto;html=1;exitX=1;exitY=0.5;exitDx=0;exitDy=0;" edge="1" parent="1" source="WxBqOeOehTViDiiqJvIH-5" target="WxBqOeOehTViDiiqJvIH-11">
          <mxGeometry relative="1" as="geometry" />
        </mxCell>
        <mxCell id="WxBqOeOehTViDiiqJvIH-5" value="Tipologie di mercato" style="rounded=0;whiteSpace=wrap;html=1;" vertex="1" parent="1">
          <mxGeometry x="716" y="180" width="96" height="50" as="geometry" />
        </mxCell>
        <mxCell id="WxBqOeOehTViDiiqJvIH-18" style="edgeStyle=orthogonalEdgeStyle;rounded=0;orthogonalLoop=1;jettySize=auto;html=1;exitX=0.5;exitY=1;exitDx=0;exitDy=0;" edge="1" parent="1" source="WxBqOeOehTViDiiqJvIH-9" target="WxBqOeOehTViDiiqJvIH-15">
          <mxGeometry relative="1" as="geometry" />
        </mxCell>
        <mxCell id="WxBqOeOehTViDiiqJvIH-9" value="Luogo" style="rounded=0;whiteSpace=wrap;html=1;" vertex="1" parent="1">
          <mxGeometry x="512" y="270" width="120" height="60" as="geometry" />
        </mxCell>
        <mxCell id="WxBqOeOehTViDiiqJvIH-19" style="edgeStyle=orthogonalEdgeStyle;rounded=0;orthogonalLoop=1;jettySize=auto;html=1;exitX=0.5;exitY=1;exitDx=0;exitDy=0;entryX=0.5;entryY=0;entryDx=0;entryDy=0;" edge="1" parent="1" source="WxBqOeOehTViDiiqJvIH-10" target="WxBqOeOehTViDiiqJvIH-16">
          <mxGeometry relative="1" as="geometry" />
        </mxCell>
        <mxCell id="WxBqOeOehTViDiiqJvIH-10" value="Modalità" style="rounded=0;whiteSpace=wrap;html=1;" vertex="1" parent="1">
          <mxGeometry x="704" y="270" width="120" height="60" as="geometry" />
        </mxCell>
        <mxCell id="WxBqOeOehTViDiiqJvIH-20" style="edgeStyle=orthogonalEdgeStyle;rounded=0;orthogonalLoop=1;jettySize=auto;html=1;exitX=0.5;exitY=1;exitDx=0;exitDy=0;" edge="1" parent="1" source="WxBqOeOehTViDiiqJvIH-11" target="WxBqOeOehTViDiiqJvIH-17">
          <mxGeometry relative="1" as="geometry" />
        </mxCell>
        <mxCell id="WxBqOeOehTViDiiqJvIH-11" value="Oggetto" style="rounded=0;whiteSpace=wrap;html=1;" vertex="1" parent="1">
          <mxGeometry x="892" y="270" width="120" height="60" as="geometry" />
        </mxCell>
        <mxCell id="WxBqOeOehTViDiiqJvIH-15" value="Quartiere, città, punto preciso&amp;nbsp;" style="rounded=0;whiteSpace=wrap;html=1;" vertex="1" parent="1">
          <mxGeometry x="512" y="360" width="120" height="60" as="geometry" />
        </mxCell>
        <mxCell id="WxBqOeOehTViDiiqJvIH-16" value="Telefono, online, umana" style="rounded=0;whiteSpace=wrap;html=1;" vertex="1" parent="1">
          <mxGeometry x="704" y="360" width="120" height="60" as="geometry" />
        </mxCell>
        <mxCell id="WxBqOeOehTViDiiqJvIH-17" value="Bene o servizio scambiato" style="rounded=0;whiteSpace=wrap;html=1;" vertex="1" parent="1">
          <mxGeometry x="892" y="360" width="120" height="60" as="geometry" />
        </mxCell>
        <mxCell id="WxBqOeOehTViDiiqJvIH-30" style="edgeStyle=orthogonalEdgeStyle;rounded=0;orthogonalLoop=1;jettySize=auto;html=1;exitX=1;exitY=0.5;exitDx=0;exitDy=0;" edge="1" parent="1" source="WxBqOeOehTViDiiqJvIH-21" target="WxBqOeOehTViDiiqJvIH-24">
          <mxGeometry relative="1" as="geometry" />
        </mxCell>
        <mxCell id="WxBqOeOehTViDiiqJvIH-32" style="edgeStyle=orthogonalEdgeStyle;rounded=0;orthogonalLoop=1;jettySize=auto;html=1;exitX=1;exitY=0.5;exitDx=0;exitDy=0;entryX=0.5;entryY=0;entryDx=0;entryDy=0;" edge="1" parent="1" source="WxBqOeOehTViDiiqJvIH-21" target="WxBqOeOehTViDiiqJvIH-31">
          <mxGeometry relative="1" as="geometry" />
        </mxCell>
        <mxCell id="WxBqOeOehTViDiiqJvIH-36" style="edgeStyle=orthogonalEdgeStyle;rounded=0;orthogonalLoop=1;jettySize=auto;html=1;exitX=0;exitY=0.5;exitDx=0;exitDy=0;" edge="1" parent="1" source="WxBqOeOehTViDiiqJvIH-21" target="WxBqOeOehTViDiiqJvIH-22">
          <mxGeometry relative="1" as="geometry" />
        </mxCell>
        <mxCell id="WxBqOeOehTViDiiqJvIH-37" style="edgeStyle=orthogonalEdgeStyle;rounded=0;orthogonalLoop=1;jettySize=auto;html=1;exitX=0;exitY=0.5;exitDx=0;exitDy=0;" edge="1" parent="1" source="WxBqOeOehTViDiiqJvIH-21" target="WxBqOeOehTViDiiqJvIH-23">
          <mxGeometry relative="1" as="geometry" />
        </mxCell>
        <mxCell id="WxBqOeOehTViDiiqJvIH-21" value="Domanda&lt;br&gt;(Quantità di uno di più beni o servizi da parte d uno o più soggetti economici)" style="rounded=1;whiteSpace=wrap;html=1;" vertex="1" parent="1">
          <mxGeometry x="650" y="485" width="132" height="90" as="geometry" />
        </mxCell>
        <mxCell id="WxBqOeOehTViDiiqJvIH-22" value="Individuale&lt;br&gt;(Soggetto esclusivo)" style="rounded=0;whiteSpace=wrap;html=1;" vertex="1" parent="1">
          <mxGeometry x="380" y="625" width="120" height="60" as="geometry" />
        </mxCell>
        <mxCell id="WxBqOeOehTViDiiqJvIH-23" value="Aggregata&lt;br&gt;(Stato)" style="rounded=0;whiteSpace=wrap;html=1;" vertex="1" parent="1">
          <mxGeometry x="570" y="625" width="120" height="60" as="geometry" />
        </mxCell>
        <mxCell id="WxBqOeOehTViDiiqJvIH-24" value="Interna&lt;br&gt;(Soggetti di uno Stato)" style="rounded=0;whiteSpace=wrap;html=1;" vertex="1" parent="1">
          <mxGeometry x="747.5" y="625" width="120" height="60" as="geometry" />
        </mxCell>
        <mxCell id="WxBqOeOehTViDiiqJvIH-31" value="Estera&lt;br&gt;(Beni richiesti da stranieri)" style="rounded=0;whiteSpace=wrap;html=1;" vertex="1" parent="1">
          <mxGeometry x="940" y="625" width="120" height="60" as="geometry" />
        </mxCell>
        <mxCell id="WxBqOeOehTViDiiqJvIH-46" style="edgeStyle=orthogonalEdgeStyle;rounded=0;orthogonalLoop=1;jettySize=auto;html=1;exitX=0;exitY=0.5;exitDx=0;exitDy=0;" edge="1" parent="1" source="WxBqOeOehTViDiiqJvIH-38" target="WxBqOeOehTViDiiqJvIH-40">
          <mxGeometry relative="1" as="geometry" />
        </mxCell>
        <mxCell id="WxBqOeOehTViDiiqJvIH-50" style="edgeStyle=orthogonalEdgeStyle;rounded=0;orthogonalLoop=1;jettySize=auto;html=1;exitX=0.5;exitY=1;exitDx=0;exitDy=0;" edge="1" parent="1" source="WxBqOeOehTViDiiqJvIH-38" target="WxBqOeOehTViDiiqJvIH-41">
          <mxGeometry relative="1" as="geometry" />
        </mxCell>
        <mxCell id="WxBqOeOehTViDiiqJvIH-38" value="Fattori oggettivi" style="rounded=1;whiteSpace=wrap;html=1;" vertex="1" parent="1">
          <mxGeometry x="320" y="770" width="132" height="60" as="geometry" />
        </mxCell>
        <mxCell id="WxBqOeOehTViDiiqJvIH-52" style="edgeStyle=orthogonalEdgeStyle;rounded=0;orthogonalLoop=1;jettySize=auto;html=1;exitX=1;exitY=0.5;exitDx=0;exitDy=0;entryX=0.5;entryY=0;entryDx=0;entryDy=0;" edge="1" parent="1" source="WxBqOeOehTViDiiqJvIH-39" target="WxBqOeOehTViDiiqJvIH-43">
          <mxGeometry relative="1" as="geometry" />
        </mxCell>
        <mxCell id="WxBqOeOehTViDiiqJvIH-53" style="edgeStyle=orthogonalEdgeStyle;rounded=0;orthogonalLoop=1;jettySize=auto;html=1;exitX=0;exitY=0.5;exitDx=0;exitDy=0;" edge="1" parent="1" source="WxBqOeOehTViDiiqJvIH-39" target="WxBqOeOehTViDiiqJvIH-42">
          <mxGeometry relative="1" as="geometry" />
        </mxCell>
        <mxCell id="WxBqOeOehTViDiiqJvIH-39" value="Fattori soggettivi" style="rounded=1;whiteSpace=wrap;html=1;" vertex="1" parent="1">
          <mxGeometry x="928" y="780" width="132" height="60" as="geometry" />
        </mxCell>
        <mxCell id="WxBqOeOehTViDiiqJvIH-40" value="Reddito dagli acquirenti" style="rounded=0;whiteSpace=wrap;html=1;" vertex="1" parent="1">
          <mxGeometry x="120" y="890" width="120" height="60" as="geometry" />
        </mxCell>
        <mxCell id="WxBqOeOehTViDiiqJvIH-41" value="Prezzo del bene" style="rounded=0;whiteSpace=wrap;html=1;" vertex="1" parent="1">
          <mxGeometry x="326" y="890" width="120" height="60" as="geometry" />
        </mxCell>
        <mxCell id="WxBqOeOehTViDiiqJvIH-42" value="Gusti, preferenze, interessi dei consumatori" style="rounded=0;whiteSpace=wrap;html=1;" vertex="1" parent="1">
          <mxGeometry x="750" y="890" width="120" height="60" as="geometry" />
        </mxCell>
        <mxCell id="WxBqOeOehTViDiiqJvIH-43" value="Condizionamenti pubblicitari, culturali, ambientali" style="rounded=0;whiteSpace=wrap;html=1;" vertex="1" parent="1">
          <mxGeometry x="1110" y="890" width="120" height="60" as="geometry" />
        </mxCell>
        <mxCell id="WxBqOeOehTViDiiqJvIH-47" value="Prezzo dagli altri beni" style="rounded=0;whiteSpace=wrap;html=1;" vertex="1" parent="1">
          <mxGeometry x="530" y="890" width="120" height="60" as="geometry" />
        </mxCell>
        <mxCell id="WxBqOeOehTViDiiqJvIH-49" style="edgeStyle=orthogonalEdgeStyle;rounded=0;orthogonalLoop=1;jettySize=auto;html=1;exitX=1;exitY=0.5;exitDx=0;exitDy=0;entryX=0.549;entryY=0.023;entryDx=0;entryDy=0;entryPerimeter=0;" edge="1" parent="1" source="WxBqOeOehTViDiiqJvIH-38" target="WxBqOeOehTViDiiqJvIH-47">
          <mxGeometry relative="1" as="geometry" />
        </mxCell>
        <mxCell id="WxBqOeOehTViDiiqJvIH-56" style="edgeStyle=orthogonalEdgeStyle;rounded=0;orthogonalLoop=1;jettySize=auto;html=1;exitX=0.5;exitY=1;exitDx=0;exitDy=0;entryX=0.5;entryY=0;entryDx=0;entryDy=0;" edge="1" parent="1" source="WxBqOeOehTViDiiqJvIH-54" target="WxBqOeOehTViDiiqJvIH-55">
          <mxGeometry relative="1" as="geometry" />
        </mxCell>
        <mxCell id="WxBqOeOehTViDiiqJvIH-54" value="Elasticità della domanda" style="rounded=1;whiteSpace=wrap;html=1;" vertex="1" parent="1">
          <mxGeometry x="610" y="1000" width="132" height="60" as="geometry" />
        </mxCell>
        <mxCell id="WxBqOeOehTViDiiqJvIH-60" style="edgeStyle=orthogonalEdgeStyle;rounded=0;orthogonalLoop=1;jettySize=auto;html=1;exitX=1;exitY=0.5;exitDx=0;exitDy=0;" edge="1" parent="1" source="WxBqOeOehTViDiiqJvIH-55" target="WxBqOeOehTViDiiqJvIH-59">
          <mxGeometry relative="1" as="geometry" />
        </mxCell>
        <mxCell id="WxBqOeOehTViDiiqJvIH-62" style="edgeStyle=orthogonalEdgeStyle;rounded=0;orthogonalLoop=1;jettySize=auto;html=1;exitX=0;exitY=0.5;exitDx=0;exitDy=0;" edge="1" parent="1" source="WxBqOeOehTViDiiqJvIH-55" target="WxBqOeOehTViDiiqJvIH-57">
          <mxGeometry relative="1" as="geometry" />
        </mxCell>
        <mxCell id="WxBqOeOehTViDiiqJvIH-55" value="Rapporto tra la domanda e la variazione di un prezzo" style="rounded=0;whiteSpace=wrap;html=1;" vertex="1" parent="1">
          <mxGeometry x="616" y="1110" width="120" height="60" as="geometry" />
        </mxCell>
        <mxCell id="WxBqOeOehTViDiiqJvIH-57" value="Beni a domanda rigida (beni primari)" style="rounded=0;whiteSpace=wrap;html=1;" vertex="1" parent="1">
          <mxGeometry x="440" y="1230" width="120" height="60" as="geometry" />
        </mxCell>
        <mxCell id="WxBqOeOehTViDiiqJvIH-59" value="Beni a domanda elastica (beni secondari)" style="rounded=0;whiteSpace=wrap;html=1;" vertex="1" parent="1">
          <mxGeometry x="808" y="1230" width="120" height="60" as="geometry" />
        </mxCell>
      </root>
    </mxGraphModel>
  </diagram>
</mxfile>
